<svg viewBox="0 0 63 56" fill="none" xmlns="http://www.w3.org/2000/svg">
<path fill-rule="evenodd" clip-rule="evenodd" d="M25.2436 21.5333C19.8342 23.697 13.5233 26.2214 8.65494 36.4991L24.1617 45.154C27.7679 36.6794 32.456 34.8763 37.8653 32.7126C43.2747 30.5488 49.2249 28.2048 53.913 19.1892L38.5866 10.1737C34.6197 17.7467 30.2923 19.5498 25.2436 21.5333ZM37.3244 27.1229C37.3244 29.6473 34.4394 31.6307 31.0135 31.6307C27.5876 31.6307 24.7026 29.6473 24.7026 27.1229C24.7026 24.5985 27.5876 22.6151 31.0135 22.6151C34.4394 22.6151 37.3244 24.5985 37.3244 27.1229ZM35.341 0.977783L32.2757 6.92805C29.0301 13.2389 25.6042 14.5011 20.9161 16.4845C15.1461 18.8286 7.93369 21.7136 2.52436 33.2535L0 38.4825L27.7679 55.0711L30.6529 48.3996C33.7182 41.3675 37.1441 39.925 42.3731 37.9416C47.9628 35.7778 54.9949 32.8929 60.2239 22.7954L62.9286 17.5664L35.341 0.977783ZM56.9783 21.1726C52.4706 30.0079 46.34 32.5322 40.9306 34.696C35.5213 36.8597 30.8332 38.6628 27.227 47.1374L25.9648 50.0224L4.50778 37.04L5.58965 34.8763C10.458 24.5985 16.7689 22.0742 22.1783 19.9105C27.227 17.927 31.3741 16.1239 35.341 8.73116L36.7835 6.0265L58.2405 18.8286L56.9783 21.1726Z" fill="#1677FF"/>
</svg>
