<svg
	xmlns="http://www.w3.org/2000/svg"
	xmlns:xlink="http://www.w3.org/1999/xlink"
	version="1.1"
	viewBox="0 -42.10526315789474 3210.5263157894738 965.4094951057878"
>
	<g transform="scale(10.526315789473685) translate(10, 10)">
		<defs id="SvgjsDefs1660" />
		<g
			id="SvgjsG1661"
			featureKey="odWo6G-0"
			transform="matrix(1.8624641019514416,0,0,1.8624641019514416,-4.842406487455331,-13.312320509757209)"
			fill="#000"
		>
			<path
				xmlns="http://www.w3.org/2000/svg"
				fill-rule="evenodd"
				clip-rule="evenodd"
				d="M16.6,16.4c-3,1.2-6.5,2.6-9.2,8.3l8.6,4.8c2-4.7,4.6-5.7,7.6-6.9  c3-1.2,6.3-2.5,8.9-7.5l-8.5-5C21.8,14.3,19.4,15.3,16.6,16.4z M23.3,19.5c0,1.4-1.6,2.5-3.5,2.5c-1.9,0-3.5-1.1-3.5-2.5  c0-1.4,1.6-2.5,3.5-2.5C21.7,17,23.3,18.1,23.3,19.5z M22.2,5l-1.7,3.3c-1.8,3.5-3.7,4.2-6.3,5.3c-3.2,1.3-7.2,2.9-10.2,9.3  l-1.4,2.9L18,35l1.6-3.7c1.7-3.9,3.6-4.7,6.5-5.8c3.1-1.2,7-2.8,9.9-8.4l1.5-2.9L22.2,5z M34.2,16.2c-2.5,4.9-5.9,6.3-8.9,7.5  c-3,1.2-5.6,2.2-7.6,6.9l-0.7,1.6L5.1,25l0.6-1.2c2.7-5.7,6.2-7.1,9.2-8.3c2.8-1.1,5.1-2.1,7.3-6.2L23,7.8l11.9,7.1L34.2,16.2z"
			/>
		</g>
		<g
			id="SvgjsG1662"
			featureKey="VGK2BT-0"
			transform="matrix(3.611461745561427,0,0,3.611461745561427,80.41012606652667,-23.26120634400184)"
			fill="#000"
		>
			<path d="M16.542 6.441000000000001 c0.15254 0 0.27168 0.11881 0.27168 0.28847 l0 12.983 c0 0.15254 -0.10169 0.28797 -0.27136 0.28797 l-1.339 0 c-0.18644 0 -0.28814 -0.11864 -0.28814 -0.28814 l0 -9.339 l-5.5254 9.0339 c-0.084746 0.13559 -0.16949 0.20339 -0.30508 0.20339 l-0.08458 0 c-0.13559 0 -0.22034 -0.067797 -0.30508 -0.20339 l-5.5085 -9.0339 l0 9.339 c0 0.15254 -0.11881 0.28797 -0.28831 0.28797 l-1.339 0 c-0.16949 0 -0.28831 -0.11864 -0.28831 -0.28814 l0 -13 c0 -0.15254 0.10186 -0.27119 0.27119 -0.27119 l1.1525 0 c0.15254 0 0.25424 0.050847 0.33898 0.18644 l6.0169 9.8307 l6.0168 -9.8307 c0.067797 -0.13559 0.16949 -0.18644 0.33898 -0.18644 l1.1356 0 z M23.101545762711865 20.11864 c2.3729 0 4.339 -1.8812 4.339 -4.3049 c0 -2.4746 -1.9661 -4.322 -4.339 -4.322 s-4.339 1.8475 -4.339 4.322 c0 2.4237 1.9661 4.3049 4.339 4.3049 z M23.101545762711865 18.39 c-1.4576 0 -2.5424 -1.2034 -2.5424 -2.5593 c0 -1.4068 1.0847 -2.6102 2.5424 -2.6102 s2.5424 1.2034 2.5424 2.6102 c0 1.3559 -1.0847 2.5593 -2.5424 2.5593 z M37.10155254237288 19.64424 c0.033898 0.18644 -0.016784 0.35576 -0.16916 0.35576 l-1.1017 0 c-0.44068 0 -0.66102 -0.28797 -0.66102 -0.6778 l0 -4.4068 c0 -1.1186 -0.77966 -1.7627 -1.8983 -1.7627 c-0.9661 0 -1.7797 0.45763 -2.4575 1.1186 l0 5.4578 c0 0.15238 -0.11864 0.27102 -0.27119 0.27102 l-1.3222 0 c-0.15238 0 -0.25407 -0.11864 -0.25407 -0.27102 l0 -7.8476 c0 -0.15238 0.10169 -0.27119 0.25407 -0.27119 l0.91525 0 c0.40678 0 0.66102 0.42373 0.67797 0.72881 l0 0.16949 c0.66102 -0.50864 1.5422 -1.0171 2.6947 -1.0171 c1.7458 0 3.4915 1.1019 3.4915 3.2205 l0 3.7627 c0.016784 0.47458 0.050681 0.83051 0.10153 1.1695 z M45.830501694915256 16.4915 c0.61 0 1.0336 -0.30508 1.0336 -1.0169 c0 -2.0847 -1.6102 -3.9831 -4.0847 -3.9831 c-2.3559 0 -4.2034 1.8644 -4.2034 4.3051 c0 2.5422 1.9322 4.288 4.3051 4.288 c1.5085 0 2.6949 -0.61017 3.4237 -1.5932 c0.10186 -0.13559 0.067963 -0.23729 -0.033568 -0.37288 l-0.32203 -0.42373 c-0.13559 -0.16933 -0.27119 -0.15254 -0.44085 -0.050847 c-0.5422 0.44068 -1.4405 0.81373 -2.4236 0.81373 c-1.3898 0 -2.3729 -0.84746 -2.5593 -1.9661 l5.3051 0 z M40.52530169491525 15.050799999999999 c0.067797 -0.81356 0.83051 -1.8644 2.2203 -1.8644 c1.4068 0 2.1356 1.0678 2.1864 1.8644 l-4.4068 0 z M56.40673559322033 11.6102 c0.20339 0 0.30525 0.13543 0.20356 0.32203 l-3.3559 6.8983 c-1.678 3.4914 -3.1525 5.5083 -3.9492 6.288 c-0.15254 0.13559 -0.33898 0.067797 -0.50847 -0.10169 l-0.72881 -0.72881 c-0.18644 -0.16949 -0.15254 -0.33898 0.016949 -0.54237 c1.0339 -1.1695 2.3729 -3.1017 3.2373 -5.0507 l-3.5254 -6.7797 c-0.084746 -0.16949 0 -0.30508 0.18644 -0.30508 l1.4915 0 c0.15238 0 0.23712 0.067797 0.30492 0.18661 l2.4915 5.0846 l2.3729 -5.0678 c0.067797 -0.13559 0.16949 -0.20339 0.32203 -0.20339 l1.4407 0 z" />
		</g>
	</g>
</svg>